<mxfile host="www.draw.io" modified="2020-01-14T08:51:40.211Z" agent="Mozilla/5.0 (Windows NT 10.0; WOW64) AppleWebKit/537.36 (KHTML, like Gecko) Chrome/70.0.3538.25 Safari/537.36 Core/1.70.3741.400 QQBrowser/10.5.3863.400" etag="0zD7MoIVkBH6bm9eJIBr" version="12.5.1" type="github">
  <diagram id="oSdcrSQjDC5RHDFgWeHB" name="第 1 页">
    <mxGraphModel dx="1381" dy="770" grid="1" gridSize="10" guides="1" tooltips="1" connect="1" arrows="1" fold="1" page="1" pageScale="1" pageWidth="3300" pageHeight="4681" math="0" shadow="0">
      <root>
        <mxCell id="0"/>
        <mxCell id="1" parent="0"/>
        <UserObject label="&lt;!--[if IE]&gt;&lt;meta http-equiv=&quot;X-UA-Compatible&quot; content=&quot;IE=5&quot; &gt;&lt;![endif]--&gt;&#xa;&lt;!DOCTYPE html&gt;&#xa;&lt;html&gt;&#xa;&lt;head&gt;&#xa;    &lt;title&gt;Flowchart Maker &amp;amp; Online Diagram Software&lt;/title&gt;&#xa;    &lt;meta charset=&quot;utf-8&quot;/&gt;&#xa;    &lt;meta http-equiv=&quot;Content-Type&quot; content=&quot;text/html; charset=UTF-8&quot;&gt;&#xa;    &lt;meta name=&quot;Description&quot; content=&quot;draw.io is free online diagram software for making flowcharts, process diagrams, org charts, UML, ER and network diagrams&quot;&gt;&#xa;    &lt;meta name=&quot;Keywords&quot; content=&quot;diagram, online, flow chart, flowchart maker, uml, erd&quot;&gt;&#xa;    &lt;meta itemprop=&quot;name&quot; content=&quot;draw.io - free flowchart maker and diagrams online&quot;&gt;&#xa;	&lt;meta itemprop=&quot;description&quot; content=&quot;draw.io is a free online diagramming application  and flowchart maker . You can use it to create UML, entity relationship,&#xa;		org charts, BPMN and BPM, database schema and networks. Also possible are telecommunication network, workflow, flowcharts, maps overlays and GIS, electronic &#xa;		circuit and social network diagrams.&quot;&gt;&#xa;	&lt;meta itemprop=&quot;image&quot; content=&quot;https://lh4.googleusercontent.com/-cLKEldMbT_E/Tx8qXDuw6eI/AAAAAAAAAAs/Ke0pnlk8Gpg/w500-h344-k/BPMN%2Bdiagram%2Brc2f.png&quot;&gt;&#xa;    &lt;meta name=&quot;viewport&quot; content=&quot;width=device-width, initial-scale=1.0, maximum-scale=1.0, user-scalable=no&quot;&gt;&#xa;	&lt;meta name=&quot;msapplication-config&quot; content=&quot;images/browserconfig.xml&quot;&gt;&#xa;    &lt;meta name=&quot;mobile-web-app-capable&quot; content=&quot;yes&quot;&gt;&#xa;	&lt;meta name=&quot;theme-color&quot; content=&quot;#d89000&quot;&gt;&#xa;	&lt;script type=&quot;text/javascript&quot;&gt;&#xa;		var mxIsElectron = window &amp;&amp; window.process &amp;&amp; window.process.type;&#xa;		var mxIsElectron5 = mxIsElectron &amp;&amp; parseInt(process.versions.electron) &gt;= 5;&#xa;		var hostName = window.location.hostname;&#xa;		// Supported domains are *.draw.io that draw.io host, or the packaged version in Quip&#xa;		var supportedDomain = (hostName.substring(hostName.length - 8, hostName.length) === &#39;.draw.io&#39;) ||&#xa;								(hostName.substring(hostName.length - 17, hostName.length) === &#39;.quipelements.com&#39;);&#xa;&#xa;		/**&#xa;		 * URL Parameters and protocol description are here:&#xa;		 *&#xa;		 * https://desk.draw.io/support/solutions/articles/16000042546-what-url-parameters-are-supported&#xa;		 *&#xa;		 * Parameters for developers:&#xa;		 *&#xa;		 * - dev=1: For developers only&#xa;		 * - test=1: For developers only&#xa;		 * - export=URL for export: For developers only&#xa;		 * - ignoremime=1: For developers only (see DriveClient.js). Use Cmd-S to override mime.&#xa;		 * - createindex=1: For developers only (see etc/build/README)&#xa;		 * - filesupport=0: For developers only (see Editor.js in core)&#xa;		 * - savesidebar=1: For developers only (see Sidebar.js)&#xa;		 * - pages=1: For developers only (see Pages.js)&#xa;		 * - lic=email: For developers only (see LicenseServlet.java)&#xa;		 * --&#xa;		 * - networkshapes=1: For testing network shapes (temporary)&#xa;		 */&#xa;		var urlParams = (function()&#xa;		{&#xa;			var result = new Object();&#xa;			var params = window.location.search.slice(1).split(&#39;&amp;&#39;);&#xa;			&#xa;			for (var i = 0; i &lt; params.length; i++)&#xa;			{&#xa;				idx = params[i].indexOf(&#39;=&#39;);&#xa;				&#xa;				if (idx &gt; 0)&#xa;				{&#xa;					result[params[i].substring(0, idx)] = params[i].substring(idx + 1);&#xa;				}&#xa;			}&#xa;			&#xa;			return result;&#xa;		})();&#xa;		&#xa;		// Forces CDN caches by passing URL parameters via URL hash&#xa;		if (window.location.hash != null &amp;&amp; window.location.hash.substring(0, 2) == &#39;#P&#39;)&#xa;		{&#xa;			try&#xa;			{&#xa;				urlParams = JSON.parse(decodeURIComponent(window.location.hash.substring(2)));&#xa;				&#xa;				if (urlParams.hash != null)&#xa;				{&#xa;					window.location.hash = urlParams.hash;&#xa;				}&#xa;			}&#xa;			catch (e)&#xa;			{&#xa;				// ignore&#xa;			}&#xa;		}&#xa;		&#xa;		// Redirects page if required&#xa;		if (urlParams[&#39;dev&#39;] != &#39;1&#39;)&#xa;		{&#xa;			(function()&#xa;			{&#xa;				var proto = window.location.protocol;&#xa;				&#xa;				if (!mxIsElectron)&#xa;				{&#xa;					var host = window.location.host;&#xa;		&#xa;					// Redirects apex and rt to www&#xa;					if (host === &#39;draw.io&#39; || host === &#39;rt.draw.io&#39;)&#xa;					{&#xa;						host = &#39;www.draw.io&#39;;&#xa;					}&#xa;					&#xa;					var href = proto + &#39;//&#39; + host + window.location.href.substring(&#xa;							window.location.protocol.length +&#xa;							window.location.host.length + 2);&#xa;		&#xa;					// Redirects if href changes&#xa;					if (href != window.location.href)&#xa;					{&#xa;						window.location.href = href;&#xa;					}&#xa;				}&#xa;				else if (!mxIsElectron5)&#xa;				{&#xa;					// It&#39;s electron, but v3 or lower&#xa;					window.location.href = &#39;https://about.draw.io/updates-to-draw-io-desktop/&#39;;&#xa;				}&#xa;			})();&#xa;		}&#xa;		&#xa;		/**&#xa;		 * Adds meta tags with application name (depends on offline URL parameter)&#xa;		 */&#xa;		(function()&#xa;		{&#xa;			function addMeta(name, content, httpEquiv)&#xa;			{&#xa;				try&#xa;				{&#xa;					var s = document.createElement(&#39;meta&#39;);&#xa;					&#xa;					if (name != null) &#xa;					{&#xa;						s.setAttribute(&#39;name&#39;, name);&#xa;					}&#xa;&#xa;					s.setAttribute(&#39;content&#39;, content);&#xa;					&#xa;					if (httpEquiv != null) &#xa;					{&#xa;						s.setAttribute(&#39;http-equiv&#39;, httpEquiv);&#xa;					}&#xa;&#xa;				  	var t = document.getElementsByTagName(&#39;meta&#39;)[0];&#xa;				  	t.parentNode.insertBefore(s, t);&#xa;				}&#xa;				catch (e)&#xa;				{&#xa;					// ignore&#xa;				}&#xa;			};&#xa;			&#xa;			var name = &#39;draw.io&#39;;&#xa;&#xa;			if (urlParams[&#39;offline&#39;] === &#39;1&#39;)&#xa;			{&#xa;				name += &#39; app&#39;;&#xa;			}&#xa;			&#xa;			addMeta(&#39;apple-mobile-web-app-title&#39;, name);&#xa;			addMeta(&#39;application-name&#39;, name);&#xa;&#xa;			if (mxIsElectron5)&#xa;			{&#xa;				addMeta(null, &#39;default-src \&#39;self\&#39; \&#39;unsafe-inline\&#39;; connect-src \&#39;self\&#39; https://*.draw.io https://fonts.googleapis.com https://fonts.gstatic.com; img-src * data:; media-src *; font-src *; style-src-elem \&#39;self\&#39; \&#39;unsafe-inline\&#39; https://fonts.googleapis.com&#39;, &#39;Content-Security-Policy&#39;);&#xa;			}&#xa;		})();&#xa;	&lt;/script&gt;&#xa;    &lt;link rel=&quot;chrome-webstore-item&quot; href=&quot;https://chrome.google.com/webstore/detail/plgmlhohecdddhbmmkncjdmlhcmaachm&quot;&gt;&#xa;	&lt;link rel=&quot;apple-touch-icon&quot; sizes=&quot;180x180&quot; href=&quot;images/apple-touch-icon.png&quot;&gt;&#xa;	&lt;link rel=&quot;icon&quot; type=&quot;image/png&quot; sizes=&quot;32x32&quot; href=&quot;images/favicon-32x32.png&quot;&gt;&#xa;	&lt;link rel=&quot;icon&quot; type=&quot;image/png&quot; sizes=&quot;16x16&quot; href=&quot;images/favicon-16x16.png&quot;&gt;&#xa;	&lt;link rel=&quot;mask-icon&quot; href=&quot;images/safari-pinned-tab.svg&quot; color=&quot;#d89000&quot;&gt;&#xa;    &lt;link rel=&quot;stylesheet&quot; type=&quot;text/css&quot; href=&quot;styles/grapheditor.css&quot;&gt;&#xa;    &lt;link rel=&quot;canonical&quot; href=&quot;https://www.draw.io&quot;&gt;&#xa;	&lt;link rel=&quot;manifest&quot; href=&quot;images/manifest.json&quot;&gt;&#xa;	&lt;link rel=&quot;shortcut icon&quot; href=&quot;favicon.ico&quot;&gt;&#xa;	&lt;style type=&quot;text/css&quot;&gt;&#xa;		body { overflow:hidden; }&#xa;		div.picker { z-index: 10007; }&#xa;		.geSidebarContainer .geTitle input {&#xa;			font-size:8pt;&#xa;			color:#606060;&#xa;		}&#xa;		.geBlock {&#xa;			z-index:-3;&#xa;			margin:100px;&#xa;			margin-top:40px;&#xa;			margin-bottom:30px;&#xa;			padding:20px;&#xa;		}&#xa;		.geBlock h1, .geBlock h2 {&#xa;			margin-top:0px;&#xa;			padding-top:0px;&#xa;		}&#xa;		.geEditor ::-webkit-scrollbar {&#xa;		    width:14px;&#xa;		    height:14px;&#xa;		}&#xa;		.geEditor ::-webkit-scrollbar-track {&#xa;			background-clip:padding-box;&#xa;			border:solid transparent;&#xa;			border-width:1px;&#xa;		}&#xa;		.geEditor ::-webkit-scrollbar-corner {&#xa;			background-color:transparent;&#xa;		}&#xa;		.geEditor ::-webkit-scrollbar-thumb {&#xa;			background-color:rgba(0,0,0,.1);&#xa;			background-clip:padding-box;&#xa;			border:solid transparent;&#xa;			border-radius:10px;&#xa;		}&#xa;		.geEditor ::-webkit-scrollbar-thumb:hover{&#xa;			background-color:rgba(0,0,0,.4);&#xa;		}&#xa;		.geTemplate {&#xa;			border:1px solid transparent;&#xa;			display:inline-block;&#xa;			_display:inline;&#xa;			vertical-align:top;&#xa;			border-radius:3px;&#xa;			overflow:hidden;&#xa;			font-size:14pt;&#xa;			cursor:pointer;&#xa;			margin:5px;&#xa;		}&#xa;		.geFooterContainer div.geSocialFooter a {&#xa;			display:inline;&#xa;			padding:0px;&#xa;		}&#xa;		.geFooterContainer div.geSocialFooter a img {&#xa;			margin-top:10px;&#xa;			opacity:0.5;&#xa;		}&#xa;		.geFooterContainer div.geSocialFooter a img:hover {&#xa;			opacity:1;&#xa;		}&#xa;		.geFooterContainer&gt;div#geFooter&gt;img {&#xa;			opacity:0.5;&#xa;			border:1px solid transparent;&#xa;			cursor:pointer;&#xa;			margin-top:3px;&#xa;			margin-right:6px;&#xa;			position:absolute;&#xa;			right:4px;&#xa;			top:12px;&#xa;			padding:1px;&#xa;			cursor:pointer;&#xa;		}&#xa;		.geFooterContainer&gt;div#geFooter&gt;img:hover {&#xa;			opacity: 1;&#xa;		}&#xa;	&lt;/style&gt;&#xa;	&lt;!-- Workaround for binary XHR in IE 9/10, see App.loadUrl --&gt;&#xa;	&lt;!--[if (IE 9)|(IE 10)]&gt;&lt;!--&gt;&#xa;		&lt;script type=&quot;text/vbscript&quot;&gt;&#xa;			Function mxUtilsBinaryToArray(Binary)&#xa;				Dim i&#xa;				ReDim byteArray(LenB(Binary))&#xa;				For i = 1 To LenB(Binary)&#xa;					byteArray(i-1) = AscB(MidB(Binary, i, 1))&#xa;				Next&#xa;				mxUtilsBinaryToArray = byteArray&#xa;			End Function&#xa;		&lt;/script&gt;&#xa;	&lt;!--&lt;![endif]--&gt;&#xa;	&lt;script type=&quot;text/javascript&quot;&gt;&#xa;		/**&#xa;		 * Synchronously adds scripts to the page.&#xa;		 */&#xa;		function mxscript(src, onLoad, id, dataAppKey, noWrite)&#xa;		{&#xa;			if (onLoad != null || noWrite)&#xa;			{&#xa;				var s = document.createElement(&#39;script&#39;);&#xa;				s.setAttribute(&#39;type&#39;, &#39;text/javascript&#39;);&#xa;				s.setAttribute(&#39;src&#39;, src);&#xa;				var r = false;&#xa;				&#xa;				if (id != null)&#xa;				{&#xa;					s.setAttribute(&#39;id&#39;, id);&#xa;				}&#xa;				&#xa;				if (dataAppKey != null)&#xa;				{&#xa;					s.setAttribute(&#39;data-app-key&#39;, dataAppKey);&#xa;				}&#xa;				&#xa;				if (onLoad != null)&#xa;				{&#xa;					s.onload = s.onreadystatechange = function()&#xa;					{&#xa;						if (!r &amp;&amp; (!this.readyState || this.readyState == &#39;complete&#39;))&#xa;						{&#xa;				      		r = true;&#xa;				      		onLoad();&#xa;						}&#xa;				  	};&#xa;				}&#xa;			  	&#xa;			  	var t = document.getElementsByTagName(&#39;script&#39;)[0];&#xa;			  	&#xa;			  	if (t != null)&#xa;			  	{&#xa;			  		t.parentNode.insertBefore(s, t);&#xa;			  	}&#xa;			}&#xa;			else&#xa;			{&#xa;				document.write(&#39;&lt;script src=&quot;&#39; + src + &#39;&quot;&#39; + ((id != null) ? &#39; id=&quot;&#39; + id +&#39;&quot; &#39; : &#39;&#39;) +&#xa;					((dataAppKey != null) ? &#39; data-app-key=&quot;&#39; + dataAppKey +&#39;&quot; &#39; : &#39;&#39;) + &#39;&gt;&lt;/scr&#39; + &#39;ipt&gt;&#39;);&#xa;			}&#xa;		};&#xa;&#xa;		/**&#xa;		 * Asynchronously adds scripts to the page.&#xa;		 */&#xa;		function mxinclude(src)&#xa;		{&#xa;			var g = document.createElement(&#39;script&#39;); g.type = &#39;text/javascript&#39;; g.async = true; g.src = src;&#xa;		    var s = document.getElementsByTagName(&#39;script&#39;)[0]; s.parentNode.insertBefore(g, s);&#xa;		};&#xa;		&#xa;		// Checks for local storage&#xa;		var isLocalStorage = false;&#xa;		&#xa;		try&#xa;		{&#xa;			isLocalStorage = urlParams[&#39;local&#39;] != &#39;1&#39; &amp;&amp; typeof(localStorage) != &#39;undefined&#39;;&#xa;		}&#xa;		catch (e)&#xa;		{&#xa;			// ignored&#xa;		}&#xa;&#xa;		var t0 = new Date();&#xa;&#xa;		// Changes paths for local development environment&#xa;		if (urlParams[&#39;dev&#39;] == &#39;1&#39;)&#xa;		{&#xa;			// Used to request grapheditor/mxgraph sources in dev mode&#xa;			var mxDevUrl = document.location.protocol + &#39;//devhost.jgraph.com/mxgraph2&#39;;&#xa;			&#xa;			// Used to request draw.io sources in dev mode&#xa;			var drawDevUrl = document.location.protocol + &#39;//devhost.jgraph.com/drawio/src/main/webapp/&#39;;&#xa;			&#xa;			if (document.location.protocol == &#39;file:&#39;)&#xa;			{&#xa;				mxDevUrl = &#39;../../../../../mxgraph2&#39;;&#xa;				drawDevUrl = &#39;./&#39;;&#xa;				&#xa;				// Forces includes for dev environment in node.js&#xa;				mxForceIncludes = true;&#xa;			}&#xa;&#xa;			var geBasePath = mxDevUrl + &#39;/javascript/examples/grapheditor/www/js&#39;;&#xa;			var mxBasePath = mxDevUrl + &#39;/javascript/src&#39;;&#xa;			&#xa;			mxscript(drawDevUrl + &#39;js/PreConfig.js&#39;);&#xa;			mxscript(drawDevUrl + &#39;js/diagramly/Init.js&#39;);&#xa;			mxscript(geBasePath + &#39;/Init.js&#39;);&#xa;			mxscript(mxDevUrl + &#39;/javascript/src/js/mxClient.js&#39;);&#xa;			&#xa;			// Adds all JS code that depends on mxClient. This indirection via Devel.js is&#xa;			// required in some browsers to make sure mxClient.js (and the files that it&#xa;			// loads asynchronously) are available when the code loaded in Devel.js runs.&#xa;			mxscript(drawDevUrl + &#39;js/diagramly/Devel.js&#39;);&#xa;			mxscript(drawDevUrl + &#39;js/PostConfig.js&#39;);&#xa;		}&#xa;		else&#xa;		{&#xa;			if (!supportedDomain)&#xa;			{&#xa;				mxscript(&#39;js/PreConfig.js&#39;);&#xa;			}&#xa;			&#xa;			mxscript(&#39;js/app.min.js&#39;);&#xa;			&#xa;			if (!supportedDomain)&#xa;			{&#xa;				mxscript(&#39;js/PostConfig.js&#39;);&#xa;			}&#xa;		}&#xa;&#xa;		// Electron&#xa;		if (mxIsElectron)&#xa;		{&#xa;			mxscript(&#39;js/PreConfig.js&#39;);&#xa;			mxscript(&#39;js/diagramly/DesktopLibrary.js&#39;);&#xa;			mxscript(&#39;js/diagramly/ElectronApp.js&#39;);&#xa;			mxscript(&#39;js/extensions.min.js&#39;);&#xa;			mxscript(&#39;js/stencils.min.js&#39;);&#xa;			mxscript(&#39;js/shapes.min.js&#39;);&#xa;			mxscript(&#39;js/PostConfig.js&#39;);&#xa;		}&#xa;		&#xa;		// Adds basic error handling&#xa;		window.onerror = function()&#xa;		{&#xa;			var status = document.getElementById(&#39;geStatus&#39;);&#xa;			&#xa;			if (status != null)&#xa;			{&#xa;				status.innerHTML = &#39;Page could not be loaded. Please try refreshing.&#39;;&#xa;			}&#xa;		};&#xa;	&lt;/script&gt;&#xa;&lt;/head&gt;&#xa;&lt;body class=&quot;geEditor&quot;&gt;&#xa;&lt;div id=&quot;geInfo&quot;&gt;&#xa;	&lt;div class=&quot;geBlock&quot; style=&quot;text-align:center;min-width:50%;&quot;&gt;&#xa;		&lt;h1&gt;Flowchart Maker and Online Diagram Software&lt;/h1&gt;&#xa;		&lt;p&gt;&#xa;			draw.io (formerly Diagramly) is free online diagram software. You can use it as a flowchart maker, network diagram software, to create UML online, as an ER diagram tool, &#xa;			to design database schema, to build BPMN online, as a circuit diagram maker, and more. draw.io can import .vsdx, Gliffy&amp;trade; and Lucidchart&amp;trade; files .&#xa;		&lt;/p&gt;&#xa;		&lt;h2 id=&quot;geStatus&quot;&gt;Loading...&lt;/h2&gt;&#xa;		&lt;p&gt;&#xa;			Please ensure JavaScript is enabled.&#xa;		&lt;/p&gt;&#xa;	&lt;/div&gt;&#xa;&lt;/div&gt;&#xa;&lt;div id=&quot;geFooter&quot; style=&quot;visibility:hidden;overflow:hidden;margin-right:170px;height:100%;&quot;&gt;&#xa;	&lt;div class=&quot;geSocialFooter&quot; style=&quot;position:absolute;right:32px;white-space:nowrap;&quot;&gt;&#xa;    	&lt;a href=&quot;https://www.youtube.com/channel/UCiTtRN9b8P4CoSfpkfgEJHA&quot; title=&quot;draw.io on Youtube&quot; target=&quot;_blank&quot;&gt;&#xa;    		&lt;img border=&quot;0&quot; width=&quot;24&quot; height=&quot;24&quot; src=&quot;images/glyphicons_youtube.png&quot; alt=&quot;draw.io on Youtube&quot;/&gt;&#xa;    	&lt;/a&gt;&#xa;    	&amp;nbsp;&#xa;    	&lt;a href=&quot;https://www.facebook.com/pages/drawio/161015263923018&quot; title=&quot;draw.io on Facebook&quot; target=&quot;_blank&quot;&gt;&#xa;    		&lt;img border=&quot;0&quot; width=&quot;24&quot; height=&quot;24&quot; src=&quot;images/glyphicons_facebook.png&quot; alt=&quot;draw.io on Facebook&quot;/&gt;&#xa;    	&lt;/a&gt;&#xa;    	&amp;nbsp;&#xa;    	&lt;a href=&quot;https://www.twitter.com/drawio&quot; title=&quot;draw.io on Twitter&quot; target=&quot;_blank&quot;&gt;&#xa;    		&lt;img border=&quot;0&quot; width=&quot;24&quot; height=&quot;24&quot; src=&quot;images/glyphicons_twitter.png&quot; alt=&quot;draw.io on Twitter&quot;/&gt;&#xa;    	&lt;/a&gt;&#xa;    	&amp;nbsp;&#xa;    	&lt;a href=&quot;https://github.com/jgraph/drawio&quot; title=&quot;draw.io on GitHub&quot; target=&quot;_blank&quot;&gt;&#xa;    		&lt;img border=&quot;0&quot; width=&quot;24&quot; height=&quot;24&quot; src=&quot;images/glyphicons_github.png&quot; alt=&quot;draw.io on GitHub&quot;/&gt;&#xa;    	&lt;/a&gt;&#xa;	&lt;/div&gt;&#xa;	&lt;table align=&quot;center&quot; height=&quot;100%&quot;&gt;&#xa;		&lt;tr&gt;&#xa;			&lt;td id=&quot;geFooterItem1&quot; align=&quot;center&quot; style=&quot;width:280px;transition: all 1s ease;&quot;&gt;&#xa;				&lt;a title=&quot;GitHub&quot; href=&quot;https://github.com/jgraph/drawio&quot; target=&quot;_blank&quot;&gt;&#xa;					&lt;img border=&quot;0&quot; align=&quot;absmiddle&quot; style=&quot;margin-top:-4px;padding-right:10px;&quot;&#xa;						width=&quot;24&quot; height=&quot;24&quot; src=&quot;images/glyphicons_github.png&quot;/&gt;Fork us on GitHub&lt;/a&gt;&#xa;			&lt;/td&gt;&#xa;			&lt;td id=&quot;geFooterItem2&quot; align=&quot;center&quot; style=&quot;width:260px;&quot;&gt;&#xa;				&lt;a id=&quot;geFooterLink1&quot; title=&quot;Download draw.io Desktop&quot; target=&quot;_blank&quot;&#xa;					href=&quot;https://get.draw.io/&quot;&gt;&#xa;					&lt;img border=&quot;0&quot; align=&quot;absmiddle&quot; style=&quot;margin-top:-2px;padding-right:10px;&quot;&#xa;					width=&quot;26&quot; src=&quot;images/drawlogo48.png&quot;&gt;Download draw.io Desktop&#xa;				&lt;/a&gt;&#xa;			&lt;/td&gt;&#xa;		&lt;/tr&gt;&#xa;	&lt;/table&gt;&#xa;&lt;/div&gt;&#xa;&lt;script type=&quot;text/javascript&quot;&gt;&#xa;/**&#xa; * Main&#xa; */&#xa;App.main();&#xa;&lt;/script&gt;&#xa;&lt;script defer src=&quot;https://static.cloudflareinsights.com/beacon.min.js&quot; data-cf-beacon=&#39;{&quot;rayId&quot;:&quot;554e5e339b7bf23e&quot;,&quot;version&quot;:&quot;2019.10.2&quot;,&quot;startTime&quot;:1578991885448}&#39;&gt;&lt;/script&gt;&#xa;&lt;/body&gt;&#xa;&lt;/html&gt;" link="&lt;!--[if IE]&gt;&lt;meta http-equiv=&quot;X-UA-Compatible&quot; content=&quot;IE=5&quot; &gt;&lt;![endif]--&gt;&#xa;&lt;!DOCTYPE html&gt;&#xa;&lt;html&gt;&#xa;&lt;head&gt;&#xa;    &lt;title&gt;Flowchart Maker &amp;amp; Online Diagram Software&lt;/title&gt;&#xa;    &lt;meta charset=&quot;utf-8&quot;/&gt;&#xa;    &lt;meta http-equiv=&quot;Content-Type&quot; content=&quot;text/html; charset=UTF-8&quot;&gt;&#xa;    &lt;meta name=&quot;Description&quot; content=&quot;draw.io is free online diagram software for making flowcharts, process diagrams, org charts, UML, ER and network diagrams&quot;&gt;&#xa;    &lt;meta name=&quot;Keywords&quot; content=&quot;diagram, online, flow chart, flowchart maker, uml, erd&quot;&gt;&#xa;    &lt;meta itemprop=&quot;name&quot; content=&quot;draw.io - free flowchart maker and diagrams online&quot;&gt;&#xa;	&lt;meta itemprop=&quot;description&quot; content=&quot;draw.io is a free online diagramming application  and flowchart maker . You can use it to create UML, entity relationship,&#xa;		org charts, BPMN and BPM, database schema and networks. Also possible are telecommunication network, workflow, flowcharts, maps overlays and GIS, electronic &#xa;		circuit and social network diagrams.&quot;&gt;&#xa;	&lt;meta itemprop=&quot;image&quot; content=&quot;https://lh4.googleusercontent.com/-cLKEldMbT_E/Tx8qXDuw6eI/AAAAAAAAAAs/Ke0pnlk8Gpg/w500-h344-k/BPMN%2Bdiagram%2Brc2f.png&quot;&gt;&#xa;    &lt;meta name=&quot;viewport&quot; content=&quot;width=device-width, initial-scale=1.0, maximum-scale=1.0, user-scalable=no&quot;&gt;&#xa;	&lt;meta name=&quot;msapplication-config&quot; content=&quot;images/browserconfig.xml&quot;&gt;&#xa;    &lt;meta name=&quot;mobile-web-app-capable&quot; content=&quot;yes&quot;&gt;&#xa;	&lt;meta name=&quot;theme-color&quot; content=&quot;#d89000&quot;&gt;&#xa;	&lt;script type=&quot;text/javascript&quot;&gt;&#xa;		var mxIsElectron = window &amp;&amp; window.process &amp;&amp; window.process.type;&#xa;		var mxIsElectron5 = mxIsElectron &amp;&amp; parseInt(process.versions.electron) &gt;= 5;&#xa;		var hostName = window.location.hostname;&#xa;		// Supported domains are *.draw.io that draw.io host, or the packaged version in Quip&#xa;		var supportedDomain = (hostName.substring(hostName.length - 8, hostName.length) === &#39;.draw.io&#39;) ||&#xa;								(hostName.substring(hostName.length - 17, hostName.length) === &#39;.quipelements.com&#39;);&#xa;&#xa;		/**&#xa;		 * URL Parameters and protocol description are here:&#xa;		 *&#xa;		 * https://desk.draw.io/support/solutions/articles/16000042546-what-url-parameters-are-supported&#xa;		 *&#xa;		 * Parameters for developers:&#xa;		 *&#xa;		 * - dev=1: For developers only&#xa;		 * - test=1: For developers only&#xa;		 * - export=URL for export: For developers only&#xa;		 * - ignoremime=1: For developers only (see DriveClient.js). Use Cmd-S to override mime.&#xa;		 * - createindex=1: For developers only (see etc/build/README)&#xa;		 * - filesupport=0: For developers only (see Editor.js in core)&#xa;		 * - savesidebar=1: For developers only (see Sidebar.js)&#xa;		 * - pages=1: For developers only (see Pages.js)&#xa;		 * - lic=email: For developers only (see LicenseServlet.java)&#xa;		 * --&#xa;		 * - networkshapes=1: For testing network shapes (temporary)&#xa;		 */&#xa;		var urlParams = (function()&#xa;		{&#xa;			var result = new Object();&#xa;			var params = window.location.search.slice(1).split(&#39;&amp;&#39;);&#xa;			&#xa;			for (var i = 0; i &lt; params.length; i++)&#xa;			{&#xa;				idx = params[i].indexOf(&#39;=&#39;);&#xa;				&#xa;				if (idx &gt; 0)&#xa;				{&#xa;					result[params[i].substring(0, idx)] = params[i].substring(idx + 1);&#xa;				}&#xa;			}&#xa;			&#xa;			return result;&#xa;		})();&#xa;		&#xa;		// Forces CDN caches by passing URL parameters via URL hash&#xa;		if (window.location.hash != null &amp;&amp; window.location.hash.substring(0, 2) == &#39;#P&#39;)&#xa;		{&#xa;			try&#xa;			{&#xa;				urlParams = JSON.parse(decodeURIComponent(window.location.hash.substring(2)));&#xa;				&#xa;				if (urlParams.hash != null)&#xa;				{&#xa;					window.location.hash = urlParams.hash;&#xa;				}&#xa;			}&#xa;			catch (e)&#xa;			{&#xa;				// ignore&#xa;			}&#xa;		}&#xa;		&#xa;		// Redirects page if required&#xa;		if (urlParams[&#39;dev&#39;] != &#39;1&#39;)&#xa;		{&#xa;			(function()&#xa;			{&#xa;				var proto = window.location.protocol;&#xa;				&#xa;				if (!mxIsElectron)&#xa;				{&#xa;					var host = window.location.host;&#xa;		&#xa;					// Redirects apex and rt to www&#xa;					if (host === &#39;draw.io&#39; || host === &#39;rt.draw.io&#39;)&#xa;					{&#xa;						host = &#39;www.draw.io&#39;;&#xa;					}&#xa;					&#xa;					var href = proto + &#39;//&#39; + host + window.location.href.substring(&#xa;							window.location.protocol.length +&#xa;							window.location.host.length + 2);&#xa;		&#xa;					// Redirects if href changes&#xa;					if (href != window.location.href)&#xa;					{&#xa;						window.location.href = href;&#xa;					}&#xa;				}&#xa;				else if (!mxIsElectron5)&#xa;				{&#xa;					// It&#39;s electron, but v3 or lower&#xa;					window.location.href = &#39;https://about.draw.io/updates-to-draw-io-desktop/&#39;;&#xa;				}&#xa;			})();&#xa;		}&#xa;		&#xa;		/**&#xa;		 * Adds meta tags with application name (depends on offline URL parameter)&#xa;		 */&#xa;		(function()&#xa;		{&#xa;			function addMeta(name, content, httpEquiv)&#xa;			{&#xa;				try&#xa;				{&#xa;					var s = document.createElement(&#39;meta&#39;);&#xa;					&#xa;					if (name != null) &#xa;					{&#xa;						s.setAttribute(&#39;name&#39;, name);&#xa;					}&#xa;&#xa;					s.setAttribute(&#39;content&#39;, content);&#xa;					&#xa;					if (httpEquiv != null) &#xa;					{&#xa;						s.setAttribute(&#39;http-equiv&#39;, httpEquiv);&#xa;					}&#xa;&#xa;				  	var t = document.getElementsByTagName(&#39;meta&#39;)[0];&#xa;				  	t.parentNode.insertBefore(s, t);&#xa;				}&#xa;				catch (e)&#xa;				{&#xa;					// ignore&#xa;				}&#xa;			};&#xa;			&#xa;			var name = &#39;draw.io&#39;;&#xa;&#xa;			if (urlParams[&#39;offline&#39;] === &#39;1&#39;)&#xa;			{&#xa;				name += &#39; app&#39;;&#xa;			}&#xa;			&#xa;			addMeta(&#39;apple-mobile-web-app-title&#39;, name);&#xa;			addMeta(&#39;application-name&#39;, name);&#xa;&#xa;			if (mxIsElectron5)&#xa;			{&#xa;				addMeta(null, &#39;default-src \&#39;self\&#39; \&#39;unsafe-inline\&#39;; connect-src \&#39;self\&#39; https://*.draw.io https://fonts.googleapis.com https://fonts.gstatic.com; img-src * data:; media-src *; font-src *; style-src-elem \&#39;self\&#39; \&#39;unsafe-inline\&#39; https://fonts.googleapis.com&#39;, &#39;Content-Security-Policy&#39;);&#xa;			}&#xa;		})();&#xa;	&lt;/script&gt;&#xa;    &lt;link rel=&quot;chrome-webstore-item&quot; href=&quot;https://chrome.google.com/webstore/detail/plgmlhohecdddhbmmkncjdmlhcmaachm&quot;&gt;&#xa;	&lt;link rel=&quot;apple-touch-icon&quot; sizes=&quot;180x180&quot; href=&quot;images/apple-touch-icon.png&quot;&gt;&#xa;	&lt;link rel=&quot;icon&quot; type=&quot;image/png&quot; sizes=&quot;32x32&quot; href=&quot;images/favicon-32x32.png&quot;&gt;&#xa;	&lt;link rel=&quot;icon&quot; type=&quot;image/png&quot; sizes=&quot;16x16&quot; href=&quot;images/favicon-16x16.png&quot;&gt;&#xa;	&lt;link rel=&quot;mask-icon&quot; href=&quot;images/safari-pinned-tab.svg&quot; color=&quot;#d89000&quot;&gt;&#xa;    &lt;link rel=&quot;stylesheet&quot; type=&quot;text/css&quot; href=&quot;styles/grapheditor.css&quot;&gt;&#xa;    &lt;link rel=&quot;canonical&quot; href=&quot;https://www.draw.io&quot;&gt;&#xa;	&lt;link rel=&quot;manifest&quot; href=&quot;images/manifest.json&quot;&gt;&#xa;	&lt;link rel=&quot;shortcut icon&quot; href=&quot;favicon.ico&quot;&gt;&#xa;	&lt;style type=&quot;text/css&quot;&gt;&#xa;		body { overflow:hidden; }&#xa;		div.picker { z-index: 10007; }&#xa;		.geSidebarContainer .geTitle input {&#xa;			font-size:8pt;&#xa;			color:#606060;&#xa;		}&#xa;		.geBlock {&#xa;			z-index:-3;&#xa;			margin:100px;&#xa;			margin-top:40px;&#xa;			margin-bottom:30px;&#xa;			padding:20px;&#xa;		}&#xa;		.geBlock h1, .geBlock h2 {&#xa;			margin-top:0px;&#xa;			padding-top:0px;&#xa;		}&#xa;		.geEditor ::-webkit-scrollbar {&#xa;		    width:14px;&#xa;		    height:14px;&#xa;		}&#xa;		.geEditor ::-webkit-scrollbar-track {&#xa;			background-clip:padding-box;&#xa;			border:solid transparent;&#xa;			border-width:1px;&#xa;		}&#xa;		.geEditor ::-webkit-scrollbar-corner {&#xa;			background-color:transparent;&#xa;		}&#xa;		.geEditor ::-webkit-scrollbar-thumb {&#xa;			background-color:rgba(0,0,0,.1);&#xa;			background-clip:padding-box;&#xa;			border:solid transparent;&#xa;			border-radius:10px;&#xa;		}&#xa;		.geEditor ::-webkit-scrollbar-thumb:hover{&#xa;			background-color:rgba(0,0,0,.4);&#xa;		}&#xa;		.geTemplate {&#xa;			border:1px solid transparent;&#xa;			display:inline-block;&#xa;			_display:inline;&#xa;			vertical-align:top;&#xa;			border-radius:3px;&#xa;			overflow:hidden;&#xa;			font-size:14pt;&#xa;			cursor:pointer;&#xa;			margin:5px;&#xa;		}&#xa;		.geFooterContainer div.geSocialFooter a {&#xa;			display:inline;&#xa;			padding:0px;&#xa;		}&#xa;		.geFooterContainer div.geSocialFooter a img {&#xa;			margin-top:10px;&#xa;			opacity:0.5;&#xa;		}&#xa;		.geFooterContainer div.geSocialFooter a img:hover {&#xa;			opacity:1;&#xa;		}&#xa;		.geFooterContainer&gt;div#geFooter&gt;img {&#xa;			opacity:0.5;&#xa;			border:1px solid transparent;&#xa;			cursor:pointer;&#xa;			margin-top:3px;&#xa;			margin-right:6px;&#xa;			position:absolute;&#xa;			right:4px;&#xa;			top:12px;&#xa;			padding:1px;&#xa;			cursor:pointer;&#xa;		}&#xa;		.geFooterContainer&gt;div#geFooter&gt;img:hover {&#xa;			opacity: 1;&#xa;		}&#xa;	&lt;/style&gt;&#xa;	&lt;!-- Workaround for binary XHR in IE 9/10, see App.loadUrl --&gt;&#xa;	&lt;!--[if (IE 9)|(IE 10)]&gt;&lt;!--&gt;&#xa;		&lt;script type=&quot;text/vbscript&quot;&gt;&#xa;			Function mxUtilsBinaryToArray(Binary)&#xa;				Dim i&#xa;				ReDim byteArray(LenB(Binary))&#xa;				For i = 1 To LenB(Binary)&#xa;					byteArray(i-1) = AscB(MidB(Binary, i, 1))&#xa;				Next&#xa;				mxUtilsBinaryToArray = byteArray&#xa;			End Function&#xa;		&lt;/script&gt;&#xa;	&lt;!--&lt;![endif]--&gt;&#xa;	&lt;script type=&quot;text/javascript&quot;&gt;&#xa;		/**&#xa;		 * Synchronously adds scripts to the page.&#xa;		 */&#xa;		function mxscript(src, onLoad, id, dataAppKey, noWrite)&#xa;		{&#xa;			if (onLoad != null || noWrite)&#xa;			{&#xa;				var s = document.createElement(&#39;script&#39;);&#xa;				s.setAttribute(&#39;type&#39;, &#39;text/javascript&#39;);&#xa;				s.setAttribute(&#39;src&#39;, src);&#xa;				var r = false;&#xa;				&#xa;				if (id != null)&#xa;				{&#xa;					s.setAttribute(&#39;id&#39;, id);&#xa;				}&#xa;				&#xa;				if (dataAppKey != null)&#xa;				{&#xa;					s.setAttribute(&#39;data-app-key&#39;, dataAppKey);&#xa;				}&#xa;				&#xa;				if (onLoad != null)&#xa;				{&#xa;					s.onload = s.onreadystatechange = function()&#xa;					{&#xa;						if (!r &amp;&amp; (!this.readyState || this.readyState == &#39;complete&#39;))&#xa;						{&#xa;				      		r = true;&#xa;				      		onLoad();&#xa;						}&#xa;				  	};&#xa;				}&#xa;			  	&#xa;			  	var t = document.getElementsByTagName(&#39;script&#39;)[0];&#xa;			  	&#xa;			  	if (t != null)&#xa;			  	{&#xa;			  		t.parentNode.insertBefore(s, t);&#xa;			  	}&#xa;			}&#xa;			else&#xa;			{&#xa;				document.write(&#39;&lt;script src=&quot;&#39; + src + &#39;&quot;&#39; + ((id != null) ? &#39; id=&quot;&#39; + id +&#39;&quot; &#39; : &#39;&#39;) +&#xa;					((dataAppKey != null) ? &#39; data-app-key=&quot;&#39; + dataAppKey +&#39;&quot; &#39; : &#39;&#39;) + &#39;&gt;&lt;/scr&#39; + &#39;ipt&gt;&#39;);&#xa;			}&#xa;		};&#xa;&#xa;		/**&#xa;		 * Asynchronously adds scripts to the page.&#xa;		 */&#xa;		function mxinclude(src)&#xa;		{&#xa;			var g = document.createElement(&#39;script&#39;); g.type = &#39;text/javascript&#39;; g.async = true; g.src = src;&#xa;		    var s = document.getElementsByTagName(&#39;script&#39;)[0]; s.parentNode.insertBefore(g, s);&#xa;		};&#xa;		&#xa;		// Checks for local storage&#xa;		var isLocalStorage = false;&#xa;		&#xa;		try&#xa;		{&#xa;			isLocalStorage = urlParams[&#39;local&#39;] != &#39;1&#39; &amp;&amp; typeof(localStorage) != &#39;undefined&#39;;&#xa;		}&#xa;		catch (e)&#xa;		{&#xa;			// ignored&#xa;		}&#xa;&#xa;		var t0 = new Date();&#xa;&#xa;		// Changes paths for local development environment&#xa;		if (urlParams[&#39;dev&#39;] == &#39;1&#39;)&#xa;		{&#xa;			// Used to request grapheditor/mxgraph sources in dev mode&#xa;			var mxDevUrl = document.location.protocol + &#39;//devhost.jgraph.com/mxgraph2&#39;;&#xa;			&#xa;			// Used to request draw.io sources in dev mode&#xa;			var drawDevUrl = document.location.protocol + &#39;//devhost.jgraph.com/drawio/src/main/webapp/&#39;;&#xa;			&#xa;			if (document.location.protocol == &#39;file:&#39;)&#xa;			{&#xa;				mxDevUrl = &#39;../../../../../mxgraph2&#39;;&#xa;				drawDevUrl = &#39;./&#39;;&#xa;				&#xa;				// Forces includes for dev environment in node.js&#xa;				mxForceIncludes = true;&#xa;			}&#xa;&#xa;			var geBasePath = mxDevUrl + &#39;/javascript/examples/grapheditor/www/js&#39;;&#xa;			var mxBasePath = mxDevUrl + &#39;/javascript/src&#39;;&#xa;			&#xa;			mxscript(drawDevUrl + &#39;js/PreConfig.js&#39;);&#xa;			mxscript(drawDevUrl + &#39;js/diagramly/Init.js&#39;);&#xa;			mxscript(geBasePath + &#39;/Init.js&#39;);&#xa;			mxscript(mxDevUrl + &#39;/javascript/src/js/mxClient.js&#39;);&#xa;			&#xa;			// Adds all JS code that depends on mxClient. This indirection via Devel.js is&#xa;			// required in some browsers to make sure mxClient.js (and the files that it&#xa;			// loads asynchronously) are available when the code loaded in Devel.js runs.&#xa;			mxscript(drawDevUrl + &#39;js/diagramly/Devel.js&#39;);&#xa;			mxscript(drawDevUrl + &#39;js/PostConfig.js&#39;);&#xa;		}&#xa;		else&#xa;		{&#xa;			if (!supportedDomain)&#xa;			{&#xa;				mxscript(&#39;js/PreConfig.js&#39;);&#xa;			}&#xa;			&#xa;			mxscript(&#39;js/app.min.js&#39;);&#xa;			&#xa;			if (!supportedDomain)&#xa;			{&#xa;				mxscript(&#39;js/PostConfig.js&#39;);&#xa;			}&#xa;		}&#xa;&#xa;		// Electron&#xa;		if (mxIsElectron)&#xa;		{&#xa;			mxscript(&#39;js/PreConfig.js&#39;);&#xa;			mxscript(&#39;js/diagramly/DesktopLibrary.js&#39;);&#xa;			mxscript(&#39;js/diagramly/ElectronApp.js&#39;);&#xa;			mxscript(&#39;js/extensions.min.js&#39;);&#xa;			mxscript(&#39;js/stencils.min.js&#39;);&#xa;			mxscript(&#39;js/shapes.min.js&#39;);&#xa;			mxscript(&#39;js/PostConfig.js&#39;);&#xa;		}&#xa;		&#xa;		// Adds basic error handling&#xa;		window.onerror = function()&#xa;		{&#xa;			var status = document.getElementById(&#39;geStatus&#39;);&#xa;			&#xa;			if (status != null)&#xa;			{&#xa;				status.innerHTML = &#39;Page could not be loaded. Please try refreshing.&#39;;&#xa;			}&#xa;		};&#xa;	&lt;/script&gt;&#xa;&lt;/head&gt;&#xa;&lt;body class=&quot;geEditor&quot;&gt;&#xa;&lt;div id=&quot;geInfo&quot;&gt;&#xa;	&lt;div class=&quot;geBlock&quot; style=&quot;text-align:center;min-width:50%;&quot;&gt;&#xa;		&lt;h1&gt;Flowchart Maker and Online Diagram Software&lt;/h1&gt;&#xa;		&lt;p&gt;&#xa;			draw.io (formerly Diagramly) is free online diagram software. You can use it as a flowchart maker, network diagram software, to create UML online, as an ER diagram tool, &#xa;			to design database schema, to build BPMN online, as a circuit diagram maker, and more. draw.io can import .vsdx, Gliffy&amp;trade; and Lucidchart&amp;trade; files .&#xa;		&lt;/p&gt;&#xa;		&lt;h2 id=&quot;geStatus&quot;&gt;Loading...&lt;/h2&gt;&#xa;		&lt;p&gt;&#xa;			Please ensure JavaScript is enabled.&#xa;		&lt;/p&gt;&#xa;	&lt;/div&gt;&#xa;&lt;/div&gt;&#xa;&lt;div id=&quot;geFooter&quot; style=&quot;visibility:hidden;overflow:hidden;margin-right:170px;height:100%;&quot;&gt;&#xa;	&lt;div class=&quot;geSocialFooter&quot; style=&quot;position:absolute;right:32px;white-space:nowrap;&quot;&gt;&#xa;    	&lt;a href=&quot;https://www.youtube.com/channel/UCiTtRN9b8P4CoSfpkfgEJHA&quot; title=&quot;draw.io on Youtube&quot; target=&quot;_blank&quot;&gt;&#xa;    		&lt;img border=&quot;0&quot; width=&quot;24&quot; height=&quot;24&quot; src=&quot;images/glyphicons_youtube.png&quot; alt=&quot;draw.io on Youtube&quot;/&gt;&#xa;    	&lt;/a&gt;&#xa;    	&amp;nbsp;&#xa;    	&lt;a href=&quot;https://www.facebook.com/pages/drawio/161015263923018&quot; title=&quot;draw.io on Facebook&quot; target=&quot;_blank&quot;&gt;&#xa;    		&lt;img border=&quot;0&quot; width=&quot;24&quot; height=&quot;24&quot; src=&quot;images/glyphicons_facebook.png&quot; alt=&quot;draw.io on Facebook&quot;/&gt;&#xa;    	&lt;/a&gt;&#xa;    	&amp;nbsp;&#xa;    	&lt;a href=&quot;https://www.twitter.com/drawio&quot; title=&quot;draw.io on Twitter&quot; target=&quot;_blank&quot;&gt;&#xa;    		&lt;img border=&quot;0&quot; width=&quot;24&quot; height=&quot;24&quot; src=&quot;images/glyphicons_twitter.png&quot; alt=&quot;draw.io on Twitter&quot;/&gt;&#xa;    	&lt;/a&gt;&#xa;    	&amp;nbsp;&#xa;    	&lt;a href=&quot;https://github.com/jgraph/drawio&quot; title=&quot;draw.io on GitHub&quot; target=&quot;_blank&quot;&gt;&#xa;    		&lt;img border=&quot;0&quot; width=&quot;24&quot; height=&quot;24&quot; src=&quot;images/glyphicons_github.png&quot; alt=&quot;draw.io on GitHub&quot;/&gt;&#xa;    	&lt;/a&gt;&#xa;	&lt;/div&gt;&#xa;	&lt;table align=&quot;center&quot; height=&quot;100%&quot;&gt;&#xa;		&lt;tr&gt;&#xa;			&lt;td id=&quot;geFooterItem1&quot; align=&quot;center&quot; style=&quot;width:280px;transition: all 1s ease;&quot;&gt;&#xa;				&lt;a title=&quot;GitHub&quot; href=&quot;https://github.com/jgraph/drawio&quot; target=&quot;_blank&quot;&gt;&#xa;					&lt;img border=&quot;0&quot; align=&quot;absmiddle&quot; style=&quot;margin-top:-4px;padding-right:10px;&quot;&#xa;						width=&quot;24&quot; height=&quot;24&quot; src=&quot;images/glyphicons_github.png&quot;/&gt;Fork us on GitHub&lt;/a&gt;&#xa;			&lt;/td&gt;&#xa;			&lt;td id=&quot;geFooterItem2&quot; align=&quot;center&quot; style=&quot;width:260px;&quot;&gt;&#xa;				&lt;a id=&quot;geFooterLink1&quot; title=&quot;Download draw.io Desktop&quot; target=&quot;_blank&quot;&#xa;					href=&quot;https://get.draw.io/&quot;&gt;&#xa;					&lt;img border=&quot;0&quot; align=&quot;absmiddle&quot; style=&quot;margin-top:-2px;padding-right:10px;&quot;&#xa;					width=&quot;26&quot; src=&quot;images/drawlogo48.png&quot;&gt;Download draw.io Desktop&#xa;				&lt;/a&gt;&#xa;			&lt;/td&gt;&#xa;		&lt;/tr&gt;&#xa;	&lt;/table&gt;&#xa;&lt;/div&gt;&#xa;&lt;script type=&quot;text/javascript&quot;&gt;&#xa;/**&#xa; * Main&#xa; */&#xa;App.main();&#xa;&lt;/script&gt;&#xa;&lt;script defer src=&quot;https://static.cloudflareinsights.com/beacon.min.js&quot; data-cf-beacon=&#39;{&quot;rayId&quot;:&quot;554e5e339b7bf23e&quot;,&quot;version&quot;:&quot;2019.10.2&quot;,&quot;startTime&quot;:1578991885448}&#39;&gt;&lt;/script&gt;&#xa;&lt;/body&gt;&#xa;&lt;/html&gt;" id="__LOFANG83iREB9IbQz5-1">
          <mxCell style="text;html=1;" vertex="1" parent="1">
            <mxGeometry x="40" y="40" width="1170" height="1100" as="geometry"/>
          </mxCell>
        </UserObject>
      </root>
    </mxGraphModel>
  </diagram>
</mxfile>
